<svg width="22" height="22" viewBox="0 0 22 22" fill="none" xmlns="http://www.w3.org/2000/svg">
<path d="M10.0848 20.8648C15.6546 20.8648 20.1697 16.3497 20.1697 10.78C20.1697 5.21026 15.6546 0.695114 10.0848 0.695114C4.51514 0.695114 0 5.21026 0 10.78C0 16.3497 4.51514 20.8648 10.0848 20.8648Z" fill="#FFDD67"/>
<path d="M21.7833 15.584C21.4532 14.9239 20.7931 14.4839 19.9497 14.5572C19.1062 14.6305 18.4461 15.0706 17.896 15.8407C17.346 15.1073 16.6859 14.6305 15.8424 14.5939C14.9989 14.5572 14.3388 14.9973 14.0088 15.6574C13.6787 16.3175 13.6787 17.1976 14.3388 18.2244C14.9989 19.2146 17.8227 21.2315 17.896 21.3049C17.9694 21.2315 20.7931 19.1779 21.4532 18.2244C22.1133 17.1243 22.1133 16.2441 21.7833 15.584Z" fill="#F46767"/>
<path d="M14.6691 12.0635C15.6817 12.0635 16.5027 11.0784 16.5027 9.86316C16.5027 8.64795 15.6817 7.66283 14.6691 7.66283C13.6564 7.66283 12.8354 8.64795 12.8354 9.86316C12.8354 11.0784 13.6564 12.0635 14.6691 12.0635Z" fill="#664E27"/>
<path d="M10.1579 11.1467C9.46108 9.64313 8.43426 8.90968 7.40744 8.90968C6.38062 8.90968 5.3538 9.64313 4.65703 11.1467C4.58368 11.2934 4.9504 11.5868 5.13376 11.4401C5.79386 10.89 6.60065 10.6699 7.40744 10.6699C8.21423 10.6699 9.02102 10.89 9.68111 11.4401C9.86448 11.5868 10.1945 11.33 10.1579 11.1467Z" fill="#664E27"/>
<path d="M13.752 18.4444C14.3387 17.8577 13.0919 17.3443 13.0919 16.2808C13.0919 15.2173 14.3387 14.7406 13.752 14.1171C13.0552 13.3837 11.5516 13.9338 10.5981 12.9803C10.5981 13.7871 11.2582 14.6305 12.5051 14.6305C12.5051 14.6305 11.6616 14.9606 11.6616 16.2808C11.6616 17.601 12.5051 17.931 12.5051 17.931C11.2582 17.931 10.5981 18.7745 10.5981 19.5813C11.5516 18.5911 13.0552 19.1412 13.752 18.4444Z" fill="#664E27"/>
</svg>
