<svg width="15" height="15" viewBox="0 0 15 15" fill="none" xmlns="http://www.w3.org/2000/svg">
<g clip-path="url(#clip0_109_1094)">
<path d="M14.8171 0.183358C14.6999 0.0661884 14.541 0.000366211 14.3752 0.000366211C14.2095 0.000366211 14.0506 0.0661884 13.9334 0.183358L7.50023 6.61648L1.06711 0.183358C0.949903 0.0661884 0.79096 0.000366211 0.625233 0.000366211C0.459505 0.000366211 0.300563 0.0661884 0.183358 0.183358C0.0661884 0.300563 0.000366211 0.459505 0.000366211 0.625233C0.000366211 0.79096 0.0661884 0.949903 0.183358 1.06711L6.61648 7.50023L0.183358 13.9334C0.0661884 14.0506 0.000366211 14.2095 0.000366211 14.3752C0.000366211 14.541 0.0661884 14.6999 0.183358 14.8171C0.300563 14.9343 0.459505 15.0001 0.625233 15.0001C0.79096 15.0001 0.949903 14.9343 1.06711 14.8171L7.50023 8.38398L13.9334 14.8171C14.0506 14.9343 14.2095 15.0001 14.3752 15.0001C14.541 15.0001 14.6999 14.9343 14.8171 14.8171C14.9343 14.6999 15.0001 14.541 15.0001 14.3752C15.0001 14.2095 14.9343 14.0506 14.8171 13.9334L8.38398 7.50023L14.8171 1.06711C14.9343 0.949903 15.0001 0.79096 15.0001 0.625233C15.0001 0.459505 14.9343 0.300563 14.8171 0.183358Z" fill="#374957"/>
</g>
<defs>
<clipPath id="clip0_109_1094">
<rect width="15" height="15" fill="white"/>
</clipPath>
</defs>
</svg>
