<svg width="24" height="24" viewBox="0 0 24 24" fill="none" xmlns="http://www.w3.org/2000/svg">
<g clip-path="url(#clip0_109_1280)">
<path d="M11.0068 2.57812L10.9998 18.0161C10.9998 18.2813 11.1052 18.5357 11.2927 18.7232C11.4803 18.9108 11.7346 19.0161 11.9998 19.0161C12.265 19.0161 12.5194 18.9108 12.7069 18.7232C12.8945 18.5357 12.9998 18.2813 12.9998 18.0161L13.0068 2.59512L15.9188 5.50812C16.1064 5.69559 16.3607 5.8009 16.6258 5.8009C16.891 5.8009 17.1453 5.69559 17.3328 5.50812C17.5203 5.32059 17.6256 5.06628 17.6256 4.80112C17.6256 4.53595 17.5203 4.28164 17.3328 4.09412L14.1218 0.879115C13.8432 0.600336 13.5124 0.379186 13.1483 0.228301C12.7842 0.0774169 12.394 -0.000244141 11.9998 -0.000244141C11.6057 -0.000244141 11.2154 0.0774169 10.8513 0.228301C10.4872 0.379186 10.1564 0.600336 9.87783 0.879115L6.66682 4.09112C6.47935 4.27864 6.37404 4.53295 6.37404 4.79812C6.37404 5.06328 6.47935 5.31759 6.66682 5.50512C6.85435 5.69259 7.10866 5.7979 7.37383 5.7979C7.63899 5.7979 7.8933 5.69259 8.08083 5.50512L11.0068 2.57812Z" fill="#374957"/>
<path d="M22 16.9994V20.9994C22 21.2646 21.8946 21.519 21.7071 21.7065C21.5196 21.894 21.2652 21.9994 21 21.9994H2.99999C2.73478 21.9994 2.48042 21.894 2.29289 21.7065C2.10535 21.519 1.99999 21.2646 1.99999 20.9994V16.9994C1.99999 16.7342 1.89464 16.4798 1.7071 16.2923C1.51956 16.1047 1.26521 15.9994 0.999992 15.9994C0.734776 15.9994 0.480422 16.1047 0.292886 16.2923C0.105349 16.4798 -7.62939e-06 16.7342 -7.62939e-06 16.9994L-7.62939e-06 20.9994C-7.62939e-06 21.795 0.316063 22.5581 0.878672 23.1207C1.44128 23.6833 2.20434 23.9994 2.99999 23.9994H21C21.7956 23.9994 22.5587 23.6833 23.1213 23.1207C23.6839 22.5581 24 21.795 24 20.9994V16.9994C24 16.7342 23.8946 16.4798 23.7071 16.2923C23.5196 16.1047 23.2652 15.9994 23 15.9994C22.7348 15.9994 22.4804 16.1047 22.2929 16.2923C22.1053 16.4798 22 16.7342 22 16.9994Z" fill="#374957"/>
</g>
<defs>
<clipPath id="clip0_109_1280">
<rect width="24" height="24" fill="white"/>
</clipPath>
</defs>
</svg>
