<svg width="22" height="22" viewBox="0 0 22 22" fill="none" xmlns="http://www.w3.org/2000/svg">
<path d="M11 22C17.0751 22 22 17.0751 22 11C22 4.92487 17.0751 0 11 0C4.92487 0 0 4.92487 0 11C0 17.0751 4.92487 22 11 22Z" fill="#FFDD67"/>
<path d="M18.2235 6.38C18.4435 6.49 18.3335 6.74667 18.1501 6.78333C17.1601 6.93 16.1335 7.11333 15.1068 7.66333C16.5735 7.92 17.7468 8.65333 18.4068 9.42333C18.5535 9.60667 18.3701 9.82667 18.2235 9.79C16.4635 9.16667 14.6668 8.8 12.4301 9.05667C12.2468 9.05667 12.1001 8.98333 12.1368 8.8C12.7235 6.12333 16.1335 5.13333 18.2235 6.38ZM3.7768 6.38C3.5568 6.49 3.6668 6.74667 3.85014 6.78333C4.84014 6.93 5.8668 7.11333 6.89347 7.66333C5.4268 7.92 4.25347 8.65333 3.59347 9.42333C3.4468 9.60667 3.63014 9.82667 3.7768 9.79C5.5368 9.16667 7.33347 8.8 9.57014 9.05667C9.75347 9.05667 9.90014 8.98333 9.86347 8.8C9.2768 6.12333 5.8668 5.13333 3.7768 6.38ZM17.4901 11.88C17.3435 11.6967 17.0868 11.7333 16.7935 11.7333H5.2068C4.91347 11.7333 4.6568 11.6967 4.51014 11.88C3.08014 13.7133 4.7668 19.0667 11.0001 19.0667C17.2335 19.0667 18.9201 13.7133 17.4901 11.88Z" fill="#664E27"/>
<path d="M11.6602 14.5567C11.4402 14.5567 11.1102 14.74 11.2569 15.29C11.3302 15.5467 11.6969 15.8767 11.6969 16.3167C11.6969 17.1967 10.3036 17.1967 10.3036 16.3167C10.3036 15.8767 10.6702 15.5833 10.7436 15.29C10.8536 14.7767 10.5236 14.5567 10.3402 14.5567C9.75358 14.5567 8.83691 15.18 8.83691 16.2433C8.83691 17.4167 9.82691 18.37 11.0369 18.37C12.2469 18.37 13.2369 17.4167 13.2369 16.2433C13.2002 15.2167 12.2469 14.5933 11.6602 14.5567Z" fill="#4C3526"/>
<path d="M8.17676 17.8567C8.98342 18.2233 9.93676 18.4067 11.0001 18.4067C12.0634 18.4067 13.0168 18.1867 13.8234 17.8567C13.0534 17.4533 12.1001 17.2333 11.0001 17.2333C9.90009 17.2333 8.94676 17.4533 8.17676 17.8567Z" fill="#FF717F"/>
<path d="M16.5001 12.4667H5.53676C4.76676 12.4667 4.76676 13.9333 5.50009 13.9333H16.5001C17.2334 13.9333 17.2334 12.4667 16.5001 12.4667Z" fill="white"/>
</svg>
