<svg width="80" height="24" viewBox="0 0 80 24" fill="none" xmlns="http://www.w3.org/2000/svg">
<path d="M22.9213 14.4169C22.816 13.9455 22.7456 13.4757 22.7063 13.0128C23.0657 12.839 23.4198 12.6584 23.7685 12.4718C23.7533 12.3014 23.7355 12.1327 23.7123 11.9665C23.4546 10.129 22.8107 9.51431 22.6189 9.36931C22.0963 8.97419 21.5353 8.8877 21.2651 8.847C20.6426 8.75119 20.046 8.8275 19.4529 9.01489C19.0078 11.0533 18.9936 13.1603 19.4306 15.1198C19.7606 16.5986 20.3117 19.0728 22.6359 20.1106C22.6537 20.1183 22.6715 20.1251 22.6894 20.1327C23.014 19.0491 23.3413 17.7628 23.5589 16.4282C23.2441 15.8668 23.0639 15.0622 22.9204 14.4161L22.9213 14.4169Z" fill="#174890"/>
<path d="M21.835 5.49945C22.2024 5.55541 23.2058 5.70973 24.2662 6.33295C24.9074 5.26373 25.6646 4.43872 26.3923 3.96728C26.6465 3.80193 27.2779 3.39324 27.731 3.39324C27.7845 3.39324 27.8353 3.39918 27.8835 3.41105C27.9834 3.43733 28.1546 3.51195 28.2152 3.60861C28.2812 3.7129 28.2563 3.91895 28.2411 4.04189C28.1252 5.00597 27.013 6.03448 26.1872 6.72383C25.9544 6.918 25.7172 7.10794 25.4755 7.29448C26.073 7.94313 26.6786 8.93349 27.0434 10.4343C27.5588 10.0621 28.0592 9.67541 28.5408 9.27265C29.9178 8.12288 31.5311 6.53305 31.7853 4.42854C31.829 4.06479 31.9628 2.95826 31.2769 1.86785C30.5394 0.695192 29.322 0.270389 28.8333 0.141507C26.7892 -0.39522 25.0412 0.737588 24.383 1.16409C22.965 2.08322 21.6852 3.58996 20.7443 5.41466C21.0983 5.41466 21.4622 5.44095 21.8359 5.4986L21.835 5.49945Z" fill="#174890"/>
<path d="M28.8137 19.4009C29.9989 18.8286 31.0843 18.0621 32.0635 17.1073C33.0669 14.1049 34.5776 11.4984 36.5272 9.43291C36.7689 8.67996 36.9812 7.89649 37.164 7.08589L33.676 6.37365C33.0249 9.25569 31.318 14.3881 27.1985 16.3764C27.1896 16.3807 27.1798 16.3858 27.1709 16.39C26.9765 17.7797 26.6688 19.1305 26.3317 20.3413C27.3831 20.0903 28.2732 19.6612 28.8137 19.4009Z" fill="#174890"/>
<path d="M58.6467 8.6045C59.2014 8.3408 59.7187 8.20768 60.1932 8.20768C60.3894 8.20768 60.5784 8.23057 60.7595 8.27551C61.3374 8.41965 61.7289 8.76306 61.835 8.86481C62.5637 9.56348 62.5949 10.5945 62.6145 11.211C62.685 13.5266 61.0012 16.5486 58.3818 17.3558C58.2632 17.3922 58.0875 17.4457 57.8833 17.4948C57.7923 17.667 57.7067 17.8213 57.6318 17.9569L57.6211 17.9764C57.1796 18.7769 56.6561 19.5425 56.0648 20.2522L53.2689 18.146C53.7228 17.6017 54.1242 17.0149 54.4622 16.401L54.4729 16.3815C54.6459 16.0678 54.8582 15.6829 55.0588 15.2352C54.8822 14.0811 55.0695 12.6889 55.6911 11.445C55.6207 10.6319 55.4378 9.63895 54.7119 8.98691C54.3025 8.61891 53.8049 8.4205 53.5222 8.32978C52.8337 9.1938 52.2941 10.185 51.9284 11.2729C51.3345 13.0408 51.2596 14.9375 51.7153 16.6147C51.9481 17.4694 52.4323 19.2483 54.2249 20.3014C55.1435 20.8407 56.1058 21.0111 56.9656 21.0111C58.0929 21.0111 59.0418 20.7186 59.4815 20.5829C61.0244 20.1072 62.4459 19.1686 63.5875 17.8908C63.5813 17.8806 63.5741 17.8705 63.567 17.8611C62.3256 15.9822 62.3461 13.4274 63.6187 11.5052C64.1993 10.6285 65.0046 9.9408 65.9955 9.4575C65.7913 8.52649 65.348 7.41827 64.3679 6.47794C63.9425 6.06925 63.0248 5.33411 61.662 4.99494C60.4509 4.69394 58.6119 4.65324 56.3796 5.92595C56.6427 6.09638 56.9076 6.2931 57.1627 6.52203C57.8717 7.15881 58.3372 7.88462 58.6458 8.6045H58.6467Z" fill="#174890"/>
<path d="M7.61901 10.8303C8.40294 10.2851 10.0341 9.1514 11.2898 9.55161C11.5422 9.63216 11.7572 9.76359 11.9453 9.923C11.1543 10.7234 10.3151 11.7078 9.49188 12.9051C7.95078 15.1461 5.08261 19.317 7.0634 22.244C7.30687 22.6035 8.22458 23.7906 9.83168 23.9754C9.97259 23.9915 10.1126 24 10.2526 24C11.6823 24 13.0468 23.1529 14.315 21.4775C15.2505 20.2404 15.8463 18.9244 15.8712 18.8685C16.2458 18.0341 17.8128 14.1702 16.4955 10.5793C16.7542 10.397 16.9691 10.2596 17.1305 10.163C17.9296 9.68474 18.6886 9.25824 19.4538 9.01573C19.6116 8.29162 19.823 7.57598 20.0897 6.879C20.2832 6.3728 20.5026 5.8844 20.7443 5.41551C18.3702 5.41127 16.4438 6.56527 15.23 7.29278C15.0534 7.39877 14.851 7.52596 14.6289 7.67604C14.1 7.16305 13.3785 6.63989 12.4252 6.33634C9.41875 5.37735 6.68258 7.28091 5.51337 8.09406C1.52683 10.865 0.347819 15.3089 0 17.7119L3.53348 18.1749C3.8046 16.3052 4.69555 12.8644 7.61812 10.8311L7.61901 10.8303ZM12.4778 14.7603C12.7979 14.294 13.1208 13.8683 13.4383 13.48C13.4838 15.5116 12.6428 17.4194 12.591 17.5347C12.4822 17.7763 12.0863 18.564 11.5672 19.2933C10.8546 20.2946 10.39 20.5397 10.2553 20.5931C10.1938 20.5524 10.1081 20.4702 10.0636 20.4083C9.88251 20.1412 9.88073 19.4196 10.4203 18.1978C10.9688 16.9547 11.841 15.6862 12.4778 14.7603Z" fill="#2E90FF"/>
<path d="M24.1529 17.0421C23.9121 16.9344 23.7186 16.7131 23.5598 16.4299C23.3422 17.7645 23.014 19.0499 22.6903 20.1344C23.3699 20.4278 24.061 20.5431 24.729 20.5431C25.2873 20.5431 25.8278 20.4625 26.3326 20.3421C26.6697 19.1313 26.9774 17.7806 27.1718 16.3909C26.5056 16.7122 25.0091 17.4236 24.1538 17.0421H24.1529Z" fill="#2E90FF"/>
<path d="M19.4538 9.01573C20.0468 8.82835 20.6435 8.75203 21.266 8.84785C21.5353 8.8894 22.0972 8.97503 22.6198 9.37016C22.8107 9.51515 23.4555 10.129 23.7132 11.9673C23.7364 12.1335 23.7542 12.3031 23.7694 12.4727C24.9199 11.8588 26.0142 11.1779 27.0434 10.4351C26.6795 8.93433 26.073 7.94398 25.4755 7.29532C24.7415 7.86088 23.9647 8.38913 23.1496 8.87837C23.4323 7.93635 23.8211 7.07572 24.2662 6.33295C23.2058 5.71058 22.2015 5.55626 21.835 5.49945C21.4613 5.44179 21.0974 5.41636 20.7434 5.41551C20.5017 5.8844 20.2823 6.3728 20.0888 6.879C19.8221 7.57598 19.6116 8.29162 19.4529 9.01573H19.4538Z" fill="#2E90FF"/>
<path d="M32.0635 17.1073C31.6586 18.3173 31.3367 19.5917 31.1021 20.9212L34.6205 21.4826C35.1279 18.6081 36.3702 14.5365 39.407 11.4637C40.2444 10.6157 42.2074 8.63078 43.4452 8.97249C43.678 9.03693 43.8885 9.17768 44.0731 9.34557C42.4731 10.9456 41.608 12.2581 41.5545 12.3412C40.2471 14.3491 37.5252 18.5276 39.4551 21.6267C40.1829 22.796 41.097 23.2064 41.7365 23.3454C41.9398 23.3895 42.1663 23.4183 42.4143 23.4183C43.3418 23.4183 44.5547 23.0181 45.871 21.5419C46.6496 20.6694 47.43 19.4459 47.9589 18.269C48.3334 17.4355 49.8977 13.5758 48.5858 9.98744C48.8132 9.81192 49.0505 9.63725 49.2957 9.46597C50.1055 8.90042 51.0107 8.3586 52.1336 8.22887C52.5545 8.1797 52.9692 8.19326 53.301 8.26703C53.3117 8.26957 53.3955 8.28823 53.524 8.32978C54.0386 7.68452 54.6361 7.11048 55.3076 6.62124C55.6751 6.35414 56.0327 6.12436 56.3814 5.9251C55.395 5.28663 54.4319 5.0348 54.1081 4.96272C53.3697 4.79993 52.5376 4.76516 51.7019 4.86182C49.7479 5.08821 48.2612 5.98022 47.1847 6.73231C47.0269 6.84254 46.8726 6.95362 46.7219 7.06469C46.177 6.52712 45.4332 5.99039 44.4441 5.71736C42.9173 5.2951 41.3004 5.62748 39.638 6.70687C38.4616 7.46999 37.4672 8.47646 36.809 9.14292C36.7145 9.23874 36.6217 9.3354 36.529 9.43291C36.1241 10.6954 35.6389 11.874 35.0789 12.956C34.228 14.5958 33.2211 15.9822 32.0662 17.1082L32.0635 17.1073ZM44.5859 14.1312C44.593 14.1202 44.9168 13.6335 45.5259 12.9161C45.5616 14.935 44.7295 16.8233 44.6778 16.9378C44.0178 18.4063 43.0724 19.5586 42.54 19.9258C42.5356 19.9182 42.5302 19.9105 42.5249 19.9021C42.2279 19.4255 42.3099 18.5462 42.755 17.4245C43.2446 16.1916 44.0526 14.9511 44.5859 14.132V14.1312Z" fill="#2E90FF"/>
<path d="M35.0762 12.9551C35.6371 11.874 36.1223 10.6954 36.5263 9.43206C34.5776 11.4976 33.066 14.104 32.0626 17.1065C33.2176 15.9805 34.2245 14.5941 35.0753 12.9543L35.0762 12.9551Z" fill="#65B1FF"/>
<path d="M56.0996 17.4143C55.527 17.0785 55.3201 16.3188 55.1694 15.7643C55.123 15.5947 55.0865 15.4175 55.0588 15.2352C54.8582 15.6829 54.6459 16.0678 54.4729 16.3815L54.4622 16.401C54.1242 17.0141 53.7228 17.6017 53.2689 18.146L56.0648 20.2522C56.6561 19.5425 57.1796 18.7769 57.6211 17.9764L57.6318 17.9569C57.7067 17.8213 57.7914 17.667 57.8833 17.4948C57.3535 17.622 56.6187 17.7195 56.0996 17.4151V17.4143Z" fill="#174890"/>
<path d="M53.5222 8.32893C53.8049 8.41965 54.3034 8.61891 54.7119 8.98606C55.4378 9.6381 55.6207 10.6319 55.6911 11.4441C56.0951 10.6352 56.6829 9.88908 57.4739 9.3142C57.8815 9.01743 58.2721 8.78171 58.6467 8.60365C58.3372 7.88377 57.8717 7.15796 57.1636 6.52118C56.9085 6.29225 56.6436 6.09468 56.3805 5.9251C56.0318 6.12436 55.6733 6.35414 55.3068 6.62124C54.6352 7.10963 54.0377 7.68452 53.5231 8.32978L53.5222 8.32893Z" fill="#2E90FF"/>
<path d="M64.4508 16.7834C64.1859 17.176 63.897 17.5449 63.5884 17.89C64.4089 19.1152 66.0963 20.5744 69.4879 20.6457C72.0877 20.6991 73.9213 19.5112 74.5242 19.1194C75.2858 18.6251 75.9119 18.0621 76.4283 17.4711C76.3694 19.4281 75.1155 20.9382 74.9451 21.1349L77.6965 23.2937C78.2244 22.6849 80.8063 19.4425 79.7477 15.3666C79.5292 14.5263 79.1778 13.7377 78.7042 13.0136C78.7685 12.7779 78.8211 12.5668 78.8657 12.3862C79.1359 11.2983 79.4159 10.1731 79.1252 8.69353C78.9522 7.81509 78.1442 4.83554 75.0031 3.37459C72.4462 2.18582 69.265 2.53007 66.898 4.25133L69.0661 6.94514C70.3682 5.99802 72.0832 5.79283 73.4352 6.42113C75.1253 7.20714 75.5498 8.97079 75.6176 9.31589C75.6773 9.62029 75.6907 9.89841 75.6711 10.1782C74.1005 9.24891 72.2607 8.7037 70.4493 8.63672C68.7308 8.57397 67.2218 8.85717 65.9955 9.45495C66.1498 10.1579 66.1685 10.7599 66.1792 11.1109C66.2381 13.0263 65.6236 15.041 64.4499 16.7817L64.4508 16.7834ZM66.6394 13.3104C67.3609 12.2208 68.9386 12.0216 69.9954 12.0216C70.1069 12.0216 70.213 12.0241 70.312 12.0275C71.5918 12.075 73.388 12.5753 74.7061 13.7055C74.2798 14.634 73.6136 15.6048 72.514 16.3188C72.1064 16.5833 71.021 17.2862 69.5673 17.2557C68.0753 17.2244 67.1014 16.8318 66.5895 16.0568C66.0098 15.1792 66.1756 14.0116 66.6394 13.3112V13.3104Z" fill="#2E90FF"/>
<path d="M63.6196 11.5035C62.347 13.4257 62.3264 15.9805 63.5679 17.8594C63.5741 17.8696 63.5813 17.8798 63.5884 17.8891C63.897 17.544 64.1868 17.1752 64.4508 16.7826C65.6245 15.041 66.239 13.0272 66.1801 11.1118C66.1694 10.7607 66.1507 10.1587 65.9964 9.4558C65.0055 9.93826 64.2002 10.6259 63.6196 11.5035Z" fill="#125ABD"/>
<path d="M34.7406 1.80992L33.9703 5.12155L37.4535 5.8539L38.2238 2.54227L34.7406 1.80992Z" fill="#125ABD"/>
</svg>
