<svg width="22" height="22" viewBox="0 0 22 22" fill="none" xmlns="http://www.w3.org/2000/svg">
<path d="M0 11C0 17.0867 4.91333 22 11 22C17.0867 22 22 17.0867 22 11C22 4.91333 17.0867 0 11 0C4.91333 0 0 4.91333 0 11Z" fill="#FFDD67"/>
<path d="M17.0503 5.24333C17.0503 8.87333 22.0003 8.87333 22.0003 5.24333C22.0003 2.60333 19.5436 0 19.5436 0C19.5436 0 17.0503 2.60333 17.0503 5.24333Z" fill="#65B1EF"/>
<path d="M15.2166 14.3C16.2292 14.3 17.05 13.4792 17.05 12.4667C17.05 11.4541 16.2292 10.6333 15.2166 10.6333C14.2041 10.6333 13.3833 11.4541 13.3833 12.4667C13.3833 13.4792 14.2041 14.3 15.2166 14.3Z" fill="#664E27"/>
<path d="M6.78304 14.3C7.79556 14.3 8.61637 13.4792 8.61637 12.4667C8.61637 11.4541 7.79556 10.6333 6.78304 10.6333C5.77052 10.6333 4.94971 11.4541 4.94971 12.4667C4.94971 13.4792 5.77052 14.3 6.78304 14.3Z" fill="#664E27"/>
<path d="M8.65308 7.29667C7.47974 8.28667 5.90308 8.72667 4.36308 8.43334C4.14308 8.39667 3.95974 9.16667 4.21641 9.24C5.97641 9.57 7.80974 9.05667 9.16641 7.92C9.34974 7.73667 8.79974 7.15 8.65308 7.29667ZM17.6364 8.39667C16.0964 8.65334 14.5197 8.25 13.3464 7.26C13.1997 7.11334 12.6131 7.7 12.8331 7.88334C14.1897 9.05667 16.0231 9.53334 17.7831 9.20334C18.0397 9.13 17.8564 8.36 17.6364 8.39667Z" fill="#917524"/>
<path d="M13.9335 18.3333H8.0668C7.5168 18.3333 7.5168 16.8667 8.0668 16.8667H13.9335C14.4835 16.8667 14.4835 18.3333 13.9335 18.3333Z" fill="#664E27"/>
</svg>
