<svg width="22" height="22" viewBox="0 0 22 22" fill="none" xmlns="http://www.w3.org/2000/svg">
<path d="M11 22C17.0751 22 22 17.0751 22 11C22 4.92487 17.0751 0 11 0C4.92487 0 0 4.92487 0 11C0 17.0751 4.92487 22 11 22Z" fill="#FFDD67"/>
<path d="M14.5563 12.6867C13.5438 12.6867 12.723 11.8659 12.723 10.8533C12.723 9.84082 13.5438 9.02 14.5563 9.02C15.5688 9.02 16.3896 9.84082 16.3896 10.8533C16.3896 11.8659 15.5688 12.6867 14.5563 12.6867Z" fill="#664E27"/>
<path d="M3.9604 9.35C5.13374 8.36 6.7104 7.92 8.2504 8.21333C8.4704 8.25 8.65374 7.48 8.39707 7.40667C6.63707 7.07667 4.80374 7.59 3.44707 8.72667C3.22707 8.91 3.81374 9.49667 3.9604 9.35ZM13.7504 6.16C15.2904 5.90333 16.8671 6.30667 18.0404 7.29667C18.1871 7.44333 18.7737 6.85667 18.5537 6.67333C17.1971 5.5 15.3637 5.02333 13.6037 5.35333C13.3471 5.42667 13.5304 6.19667 13.7504 6.16Z" fill="#917524"/>
<path d="M4.32675 11.8433C4.95008 10.56 5.94008 9.90001 6.89341 9.90001C7.84675 9.90001 8.80008 10.56 9.46008 11.8433C9.53341 11.99 9.20341 12.21 9.02008 12.0633C8.39675 11.5867 7.66341 11.4033 6.89341 11.4033C6.12341 11.4033 5.39008 11.5867 4.76675 12.0633C4.62008 12.1733 4.29008 11.9533 4.32675 11.8433ZM6.56341 14.74C9.09341 16.06 12.5767 15.8033 13.5667 15.8033C13.8234 15.8033 14.0067 15.9133 13.9334 16.1333C13.2001 18.7 7.70008 18.7 6.19675 15.1433C6.01341 14.74 6.30675 14.63 6.56341 14.74Z" fill="#664E27"/>
</svg>
