<svg width="22" height="22" viewBox="0 0 22 22" fill="none" xmlns="http://www.w3.org/2000/svg">
<path d="M11 22C17.0751 22 22 17.0751 22 11C22 4.92487 17.0751 0 11 0C4.92487 0 0 4.92487 0 11C0 17.0751 4.92487 22 11 22Z" fill="#EF5350"/>
<path d="M14.3003 17.49C12.1737 15.73 9.82701 15.73 7.70034 17.49C7.44368 17.71 7.22368 17.3433 7.40701 17.0133C8.06701 15.7667 9.35034 14.63 11.0003 14.63C12.6503 14.63 13.9703 15.7667 14.5937 17.0133C14.777 17.3067 14.557 17.6733 14.3003 17.49Z" fill="#302424"/>
<path d="M3.0064 8.39667C2.4564 10.12 3.2264 12.0633 4.94973 12.8333C6.6364 13.64 8.6164 13.0167 9.6064 11.4767L7.0764 8.65333L3.0064 8.39667Z" fill="white"/>
<path d="M4.4734 8.72666C3.96006 9.79 4.43673 11.0733 5.50006 11.55C6.5634 12.0633 7.84673 11.5867 8.3234 10.5233C8.69006 9.82666 4.8034 8.03 4.4734 8.72666Z" fill="#302424"/>
<path d="M3.00684 8.39666C3.5935 8.03 4.29017 7.84666 4.98684 7.84666C5.6835 7.84666 6.38017 8.03 7.04017 8.32333C7.6635 8.61666 8.25017 9.05666 8.72684 9.57C9.16684 10.12 9.5335 10.7433 9.60684 11.44C9.13017 10.9633 8.6535 10.56 8.14017 10.1933C7.62684 9.82666 7.1135 9.53333 6.60017 9.31333C6.05017 9.05666 5.50017 8.87333 4.9135 8.69C4.2535 8.58 3.66684 8.47 3.00684 8.39666Z" fill="#302424"/>
<path d="M18.9936 8.39667C19.5436 10.12 18.7736 12.0633 17.0502 12.8333C15.3636 13.64 13.3836 13.0167 12.3936 11.4767L14.9236 8.65333L18.9936 8.39667Z" fill="white"/>
<path d="M17.5267 8.72666C18.0401 9.79 17.5634 11.0733 16.5001 11.55C15.4367 12.0633 14.1534 11.5867 13.6767 10.5233C13.31 9.82666 17.1967 8.03 17.5267 8.72666Z" fill="#302424"/>
<path d="M18.9936 8.39666C18.4069 8.03 17.7102 7.84666 17.0136 7.84666C16.3169 7.84666 15.6202 8.03 14.9602 8.32333C14.3369 8.61666 13.7502 9.05666 13.2736 9.57C12.8336 10.12 12.4669 10.7433 12.3936 11.44C12.8702 10.9633 13.3469 10.56 13.8602 10.1933C14.3736 9.82666 14.8869 9.53333 15.4002 9.31333C15.9502 9.05666 16.5002 8.87333 17.0869 8.69C17.7469 8.58 18.3336 8.47 18.9936 8.39666Z" fill="#302424"/>
</svg>
